<mxfile host="app.diagrams.net" modified="2022-09-08T22:45:50.865Z" agent="5.0 (Windows NT 10.0; Win64; x64) AppleWebKit/537.36 (KHTML, like Gecko) Chrome/105.0.0.0 Safari/537.36" etag="lM1RF4W_ACaqmhio487E" version="20.3.0" type="github">
  <diagram id="2Kys2flmAUNfE8VEfs1F" name="PÃ¡gina-1">
    <mxGraphModel dx="2015" dy="760" grid="1" gridSize="10" guides="1" tooltips="1" connect="1" arrows="1" fold="1" page="1" pageScale="1" pageWidth="827" pageHeight="1169" math="0" shadow="0">
      <root>
        <mxCell id="0" />
        <mxCell id="1" parent="0" />
        <mxCell id="Fw9hPNQKj0aXbpjn_FU2-10" value="" style="edgeStyle=orthogonalEdgeStyle;rounded=0;orthogonalLoop=1;jettySize=auto;html=1;" edge="1" parent="1" source="Fw9hPNQKj0aXbpjn_FU2-2" target="Fw9hPNQKj0aXbpjn_FU2-3">
          <mxGeometry relative="1" as="geometry" />
        </mxCell>
        <mxCell id="Fw9hPNQKj0aXbpjn_FU2-2" value="PRACTICA 1&lt;br&gt;EJERCICIO 1" style="rounded=1;whiteSpace=wrap;html=1;" vertex="1" parent="1">
          <mxGeometry x="230" y="30" width="120" height="60" as="geometry" />
        </mxCell>
        <mxCell id="Fw9hPNQKj0aXbpjn_FU2-12" value="" style="edgeStyle=orthogonalEdgeStyle;rounded=0;orthogonalLoop=1;jettySize=auto;html=1;" edge="1" parent="1" source="Fw9hPNQKj0aXbpjn_FU2-3" target="Fw9hPNQKj0aXbpjn_FU2-11">
          <mxGeometry relative="1" as="geometry" />
        </mxCell>
        <mxCell id="Fw9hPNQKj0aXbpjn_FU2-3" value="A&amp;nbsp; = 0;&amp;nbsp;&lt;br&gt;B = 0;" style="rounded=0;whiteSpace=wrap;html=1;" vertex="1" parent="1">
          <mxGeometry x="230" y="120" width="120" height="60" as="geometry" />
        </mxCell>
        <mxCell id="Fw9hPNQKj0aXbpjn_FU2-18" value="" style="edgeStyle=orthogonalEdgeStyle;rounded=0;orthogonalLoop=1;jettySize=auto;html=1;" edge="1" parent="1" source="Fw9hPNQKj0aXbpjn_FU2-5" target="Fw9hPNQKj0aXbpjn_FU2-17">
          <mxGeometry relative="1" as="geometry" />
        </mxCell>
        <mxCell id="Fw9hPNQKj0aXbpjn_FU2-5" value="DESDE &quot;A&quot; = 0&amp;nbsp;&lt;br&gt;HASTA&amp;nbsp; = 5&lt;br&gt;INCREMENTO = +1" style="shape=hexagon;perimeter=hexagonPerimeter2;whiteSpace=wrap;html=1;fixedSize=1;" vertex="1" parent="1">
          <mxGeometry x="220" y="380" width="140" height="90" as="geometry" />
        </mxCell>
        <mxCell id="Fw9hPNQKj0aXbpjn_FU2-16" value="" style="edgeStyle=orthogonalEdgeStyle;rounded=0;orthogonalLoop=1;jettySize=auto;html=1;" edge="1" parent="1" source="Fw9hPNQKj0aXbpjn_FU2-11" target="Fw9hPNQKj0aXbpjn_FU2-5">
          <mxGeometry relative="1" as="geometry" />
        </mxCell>
        <mxCell id="Fw9hPNQKj0aXbpjn_FU2-11" value="LED_VERDE&lt;br&gt;LED_ROJO&lt;br&gt;LED_AZUL" style="rounded=0;whiteSpace=wrap;html=1;" vertex="1" parent="1">
          <mxGeometry x="215" y="220" width="150" height="90" as="geometry" />
        </mxCell>
        <mxCell id="Fw9hPNQKj0aXbpjn_FU2-14" value="SE CONFIGURAN LOS RGB" style="text;html=1;align=center;verticalAlign=middle;resizable=0;points=[];autosize=1;strokeColor=none;fillColor=none;" vertex="1" parent="1">
          <mxGeometry x="380" y="250" width="180" height="30" as="geometry" />
        </mxCell>
        <mxCell id="Fw9hPNQKj0aXbpjn_FU2-23" value="" style="edgeStyle=orthogonalEdgeStyle;rounded=0;orthogonalLoop=1;jettySize=auto;html=1;" edge="1" parent="1" source="Fw9hPNQKj0aXbpjn_FU2-17" target="Fw9hPNQKj0aXbpjn_FU2-21">
          <mxGeometry relative="1" as="geometry" />
        </mxCell>
        <mxCell id="Fw9hPNQKj0aXbpjn_FU2-17" value="VERDE_PUTVAL(0)" style="rounded=0;whiteSpace=wrap;html=1;" vertex="1" parent="1">
          <mxGeometry x="230" y="510" width="120" height="60" as="geometry" />
        </mxCell>
        <mxCell id="Fw9hPNQKj0aXbpjn_FU2-19" value="ENCIENDE VERDE" style="text;html=1;align=center;verticalAlign=middle;resizable=0;points=[];autosize=1;strokeColor=none;fillColor=none;" vertex="1" parent="1">
          <mxGeometry x="360" y="525" width="130" height="30" as="geometry" />
        </mxCell>
        <mxCell id="Fw9hPNQKj0aXbpjn_FU2-20" value="Text" style="text;html=1;align=center;verticalAlign=middle;resizable=0;points=[];autosize=1;strokeColor=none;fillColor=none;" vertex="1" parent="1">
          <mxGeometry x="620" y="440" width="40" height="20" as="geometry" />
        </mxCell>
        <mxCell id="Fw9hPNQKj0aXbpjn_FU2-25" value="" style="edgeStyle=orthogonalEdgeStyle;rounded=0;orthogonalLoop=1;jettySize=auto;html=1;" edge="1" parent="1" source="Fw9hPNQKj0aXbpjn_FU2-21" target="Fw9hPNQKj0aXbpjn_FU2-24">
          <mxGeometry relative="1" as="geometry">
            <Array as="points">
              <mxPoint x="150" y="640" />
              <mxPoint x="150" y="420" />
            </Array>
          </mxGeometry>
        </mxCell>
        <mxCell id="Fw9hPNQKj0aXbpjn_FU2-28" value="" style="edgeStyle=orthogonalEdgeStyle;rounded=0;orthogonalLoop=1;jettySize=auto;html=1;" edge="1" parent="1" source="Fw9hPNQKj0aXbpjn_FU2-21">
          <mxGeometry relative="1" as="geometry">
            <mxPoint x="289.9999999999998" y="719.9999999999998" as="targetPoint" />
          </mxGeometry>
        </mxCell>
        <mxCell id="Fw9hPNQKj0aXbpjn_FU2-21" value="WAIT_MS(1000)" style="rounded=0;whiteSpace=wrap;html=1;" vertex="1" parent="1">
          <mxGeometry x="230" y="610" width="120" height="60" as="geometry" />
        </mxCell>
        <mxCell id="Fw9hPNQKj0aXbpjn_FU2-22" value="RETRASO DE 1 SEGUNDO" style="text;html=1;align=center;verticalAlign=middle;resizable=0;points=[];autosize=1;strokeColor=none;fillColor=none;" vertex="1" parent="1">
          <mxGeometry x="370" y="610" width="170" height="30" as="geometry" />
        </mxCell>
        <mxCell id="Fw9hPNQKj0aXbpjn_FU2-24" value="" style="shape=waypoint;sketch=0;size=6;pointerEvents=1;points=[];fillColor=default;resizable=0;rotatable=0;perimeter=centerPerimeter;snapToPoint=1;rounded=0;" vertex="1" parent="1">
          <mxGeometry x="200" y="400" width="40" height="40" as="geometry" />
        </mxCell>
        <mxCell id="Fw9hPNQKj0aXbpjn_FU2-26" value="DURA 5 SEGUNDOS" style="text;html=1;align=center;verticalAlign=middle;resizable=0;points=[];autosize=1;strokeColor=none;fillColor=none;" vertex="1" parent="1">
          <mxGeometry y="540" width="140" height="30" as="geometry" />
        </mxCell>
        <mxCell id="Fw9hPNQKj0aXbpjn_FU2-32" value="" style="edgeStyle=orthogonalEdgeStyle;rounded=0;orthogonalLoop=1;jettySize=auto;html=1;" edge="1" parent="1" source="Fw9hPNQKj0aXbpjn_FU2-29" target="Fw9hPNQKj0aXbpjn_FU2-30">
          <mxGeometry relative="1" as="geometry" />
        </mxCell>
        <mxCell id="Fw9hPNQKj0aXbpjn_FU2-29" value="DESDE &quot;B&quot; = 0&amp;nbsp;&lt;br&gt;HASTA = 3&lt;br&gt;INCREMENTO = 1" style="shape=hexagon;perimeter=hexagonPerimeter2;whiteSpace=wrap;html=1;fixedSize=1;" vertex="1" parent="1">
          <mxGeometry x="220" y="720" width="140" height="90" as="geometry" />
        </mxCell>
        <mxCell id="Fw9hPNQKj0aXbpjn_FU2-34" value="" style="edgeStyle=orthogonalEdgeStyle;rounded=0;orthogonalLoop=1;jettySize=auto;html=1;" edge="1" parent="1" source="Fw9hPNQKj0aXbpjn_FU2-30" target="Fw9hPNQKj0aXbpjn_FU2-33">
          <mxGeometry relative="1" as="geometry" />
        </mxCell>
        <mxCell id="Fw9hPNQKj0aXbpjn_FU2-30" value="VERDE_PUTVAL(0" style="rounded=0;whiteSpace=wrap;html=1;" vertex="1" parent="1">
          <mxGeometry x="230" y="870" width="120" height="60" as="geometry" />
        </mxCell>
        <mxCell id="Fw9hPNQKj0aXbpjn_FU2-37" value="" style="edgeStyle=orthogonalEdgeStyle;rounded=0;orthogonalLoop=1;jettySize=auto;html=1;" edge="1" parent="1" source="Fw9hPNQKj0aXbpjn_FU2-33" target="Fw9hPNQKj0aXbpjn_FU2-36">
          <mxGeometry relative="1" as="geometry" />
        </mxCell>
        <mxCell id="Fw9hPNQKj0aXbpjn_FU2-33" value="WAIT_MS(500)" style="rounded=0;whiteSpace=wrap;html=1;" vertex="1" parent="1">
          <mxGeometry x="230" y="980" width="120" height="60" as="geometry" />
        </mxCell>
        <mxCell id="Fw9hPNQKj0aXbpjn_FU2-35" value="ENCIENDE VERDE" style="text;html=1;align=center;verticalAlign=middle;resizable=0;points=[];autosize=1;strokeColor=none;fillColor=none;" vertex="1" parent="1">
          <mxGeometry x="365" y="885" width="130" height="30" as="geometry" />
        </mxCell>
        <mxCell id="Fw9hPNQKj0aXbpjn_FU2-44" value="" style="edgeStyle=orthogonalEdgeStyle;rounded=0;orthogonalLoop=1;jettySize=auto;html=1;" edge="1" parent="1" source="Fw9hPNQKj0aXbpjn_FU2-36" target="Fw9hPNQKj0aXbpjn_FU2-43">
          <mxGeometry relative="1" as="geometry" />
        </mxCell>
        <mxCell id="Fw9hPNQKj0aXbpjn_FU2-36" value="VERDE_PUTVAL(0" style="rounded=0;whiteSpace=wrap;html=1;" vertex="1" parent="1">
          <mxGeometry x="430" y="980" width="120" height="60" as="geometry" />
        </mxCell>
        <mxCell id="Fw9hPNQKj0aXbpjn_FU2-41" value="APAGA" style="text;html=1;align=center;verticalAlign=middle;resizable=0;points=[];autosize=1;strokeColor=none;fillColor=none;" vertex="1" parent="1">
          <mxGeometry x="460" y="1040" width="60" height="30" as="geometry" />
        </mxCell>
        <mxCell id="Fw9hPNQKj0aXbpjn_FU2-46" value="" style="edgeStyle=orthogonalEdgeStyle;rounded=0;orthogonalLoop=1;jettySize=auto;html=1;" edge="1" parent="1" source="Fw9hPNQKj0aXbpjn_FU2-42" target="Fw9hPNQKj0aXbpjn_FU2-45">
          <mxGeometry relative="1" as="geometry">
            <Array as="points">
              <mxPoint x="630" y="765" />
            </Array>
          </mxGeometry>
        </mxCell>
        <mxCell id="Fw9hPNQKj0aXbpjn_FU2-50" value="" style="edgeStyle=orthogonalEdgeStyle;rounded=0;orthogonalLoop=1;jettySize=auto;html=1;" edge="1" parent="1" source="Fw9hPNQKj0aXbpjn_FU2-42" target="Fw9hPNQKj0aXbpjn_FU2-49">
          <mxGeometry relative="1" as="geometry" />
        </mxCell>
        <mxCell id="Fw9hPNQKj0aXbpjn_FU2-42" value="WAIT_MS(500)" style="rounded=0;whiteSpace=wrap;html=1;" vertex="1" parent="1">
          <mxGeometry x="560" y="880" width="120" height="60" as="geometry" />
        </mxCell>
        <mxCell id="Fw9hPNQKj0aXbpjn_FU2-43" value="" style="shape=waypoint;sketch=0;size=6;pointerEvents=1;points=[];fillColor=default;resizable=0;rotatable=0;perimeter=centerPerimeter;snapToPoint=1;rounded=0;" vertex="1" parent="1">
          <mxGeometry x="610" y="920" width="40" height="40" as="geometry" />
        </mxCell>
        <mxCell id="Fw9hPNQKj0aXbpjn_FU2-45" value="" style="shape=waypoint;sketch=0;size=6;pointerEvents=1;points=[];fillColor=default;resizable=0;rotatable=0;perimeter=centerPerimeter;snapToPoint=1;rounded=0;" vertex="1" parent="1">
          <mxGeometry x="340" y="745" width="40" height="40" as="geometry" />
        </mxCell>
        <mxCell id="Fw9hPNQKj0aXbpjn_FU2-47" value="RETRASO MEDIO SEGUNDO" style="text;html=1;align=center;verticalAlign=middle;resizable=0;points=[];autosize=1;strokeColor=none;fillColor=none;" vertex="1" parent="1">
          <mxGeometry x="195" y="1055" width="190" height="30" as="geometry" />
        </mxCell>
        <mxCell id="Fw9hPNQKj0aXbpjn_FU2-49" value="" style="shape=waypoint;sketch=0;size=6;pointerEvents=1;points=[];fillColor=default;resizable=0;rotatable=0;perimeter=centerPerimeter;snapToPoint=1;rounded=0;" vertex="1" parent="1">
          <mxGeometry x="730" y="1015" width="40" height="40" as="geometry" />
        </mxCell>
        <mxCell id="Fw9hPNQKj0aXbpjn_FU2-51" style="edgeStyle=orthogonalEdgeStyle;rounded=0;orthogonalLoop=1;jettySize=auto;html=1;entryX=0.415;entryY=0.429;entryDx=0;entryDy=0;entryPerimeter=0;" edge="1" parent="1" source="Fw9hPNQKj0aXbpjn_FU2-49" target="Fw9hPNQKj0aXbpjn_FU2-49">
          <mxGeometry relative="1" as="geometry" />
        </mxCell>
        <mxCell id="Fw9hPNQKj0aXbpjn_FU2-54" value="" style="edgeStyle=orthogonalEdgeStyle;rounded=0;orthogonalLoop=1;jettySize=auto;html=1;" edge="1" parent="1" source="Fw9hPNQKj0aXbpjn_FU2-52" target="Fw9hPNQKj0aXbpjn_FU2-53">
          <mxGeometry relative="1" as="geometry" />
        </mxCell>
        <mxCell id="Fw9hPNQKj0aXbpjn_FU2-52" value="DESDE &quot;A&quot; = 0&amp;nbsp;&lt;br&gt;HASTA = 2&lt;br&gt;INCREMENTO = 1" style="shape=hexagon;perimeter=hexagonPerimeter2;whiteSpace=wrap;html=1;fixedSize=1;" vertex="1" parent="1">
          <mxGeometry x="680" y="1040" width="140" height="90" as="geometry" />
        </mxCell>
        <mxCell id="Fw9hPNQKj0aXbpjn_FU2-56" value="" style="edgeStyle=orthogonalEdgeStyle;rounded=0;orthogonalLoop=1;jettySize=auto;html=1;" edge="1" parent="1" source="Fw9hPNQKj0aXbpjn_FU2-53" target="Fw9hPNQKj0aXbpjn_FU2-55">
          <mxGeometry relative="1" as="geometry" />
        </mxCell>
        <mxCell id="Fw9hPNQKj0aXbpjn_FU2-53" value="AZUL_PUTVAL(0);&lt;br&gt;VERDE_PUTVAL(0);" style="rounded=0;whiteSpace=wrap;html=1;" vertex="1" parent="1">
          <mxGeometry x="690" y="1190" width="120" height="60" as="geometry" />
        </mxCell>
        <mxCell id="Fw9hPNQKj0aXbpjn_FU2-58" value="" style="edgeStyle=orthogonalEdgeStyle;rounded=0;orthogonalLoop=1;jettySize=auto;html=1;" edge="1" parent="1" source="Fw9hPNQKj0aXbpjn_FU2-55" target="Fw9hPNQKj0aXbpjn_FU2-57">
          <mxGeometry relative="1" as="geometry" />
        </mxCell>
        <mxCell id="Fw9hPNQKj0aXbpjn_FU2-55" value="WAIT_MS(500)" style="rounded=0;whiteSpace=wrap;html=1;" vertex="1" parent="1">
          <mxGeometry x="690" y="1300" width="120" height="60" as="geometry" />
        </mxCell>
        <mxCell id="Fw9hPNQKj0aXbpjn_FU2-62" value="" style="edgeStyle=orthogonalEdgeStyle;rounded=0;orthogonalLoop=1;jettySize=auto;html=1;" edge="1" parent="1" source="Fw9hPNQKj0aXbpjn_FU2-57" target="Fw9hPNQKj0aXbpjn_FU2-61">
          <mxGeometry relative="1" as="geometry" />
        </mxCell>
        <mxCell id="Fw9hPNQKj0aXbpjn_FU2-57" value="AZUL_PUTVAL(1);&lt;br&gt;VERDE_PUTVAL(1);" style="rounded=0;whiteSpace=wrap;html=1;" vertex="1" parent="1">
          <mxGeometry x="690" y="1400" width="120" height="60" as="geometry" />
        </mxCell>
        <mxCell id="Fw9hPNQKj0aXbpjn_FU2-59" value="" style="shape=waypoint;sketch=0;size=6;pointerEvents=1;points=[];fillColor=default;resizable=0;rotatable=0;perimeter=centerPerimeter;snapToPoint=1;rounded=0;" vertex="1" parent="1">
          <mxGeometry x="660" y="1065" width="40" height="40" as="geometry" />
        </mxCell>
        <mxCell id="Fw9hPNQKj0aXbpjn_FU2-64" value="" style="edgeStyle=orthogonalEdgeStyle;rounded=0;orthogonalLoop=1;jettySize=auto;html=1;" edge="1" parent="1" source="Fw9hPNQKj0aXbpjn_FU2-61" target="Fw9hPNQKj0aXbpjn_FU2-63">
          <mxGeometry relative="1" as="geometry">
            <Array as="points">
              <mxPoint x="570" y="1085" />
            </Array>
          </mxGeometry>
        </mxCell>
        <mxCell id="Fw9hPNQKj0aXbpjn_FU2-67" value="" style="edgeStyle=orthogonalEdgeStyle;rounded=0;orthogonalLoop=1;jettySize=auto;html=1;" edge="1" parent="1" source="Fw9hPNQKj0aXbpjn_FU2-61" target="Fw9hPNQKj0aXbpjn_FU2-66">
          <mxGeometry relative="1" as="geometry" />
        </mxCell>
        <mxCell id="Fw9hPNQKj0aXbpjn_FU2-61" value="WAIT_MS(500)" style="rounded=0;whiteSpace=wrap;html=1;" vertex="1" parent="1">
          <mxGeometry x="500" y="1400" width="120" height="60" as="geometry" />
        </mxCell>
        <mxCell id="Fw9hPNQKj0aXbpjn_FU2-63" value="" style="shape=waypoint;sketch=0;size=6;pointerEvents=1;points=[];fillColor=default;resizable=0;rotatable=0;perimeter=centerPerimeter;snapToPoint=1;rounded=0;" vertex="1" parent="1">
          <mxGeometry x="660" y="1065" width="40" height="40" as="geometry" />
        </mxCell>
        <mxCell id="Fw9hPNQKj0aXbpjn_FU2-69" value="" style="edgeStyle=orthogonalEdgeStyle;rounded=0;orthogonalLoop=1;jettySize=auto;html=1;" edge="1" parent="1" source="Fw9hPNQKj0aXbpjn_FU2-66" target="Fw9hPNQKj0aXbpjn_FU2-68">
          <mxGeometry relative="1" as="geometry" />
        </mxCell>
        <mxCell id="Fw9hPNQKj0aXbpjn_FU2-66" value="DESDE &quot;A&quot; = 0&amp;nbsp;&lt;br&gt;HASTA = 8&lt;br&gt;INCREMENTO = 1" style="shape=hexagon;perimeter=hexagonPerimeter2;whiteSpace=wrap;html=1;fixedSize=1;" vertex="1" parent="1">
          <mxGeometry x="290" y="1385" width="140" height="90" as="geometry" />
        </mxCell>
        <mxCell id="Fw9hPNQKj0aXbpjn_FU2-71" value="" style="edgeStyle=orthogonalEdgeStyle;rounded=0;orthogonalLoop=1;jettySize=auto;html=1;" edge="1" parent="1" source="Fw9hPNQKj0aXbpjn_FU2-68" target="Fw9hPNQKj0aXbpjn_FU2-70">
          <mxGeometry relative="1" as="geometry" />
        </mxCell>
        <mxCell id="Fw9hPNQKj0aXbpjn_FU2-68" value="ROJO_PUTVAL(0)" style="rounded=0;whiteSpace=wrap;html=1;" vertex="1" parent="1">
          <mxGeometry x="300" y="1290" width="120" height="60" as="geometry" />
        </mxCell>
        <mxCell id="Fw9hPNQKj0aXbpjn_FU2-73" value="" style="edgeStyle=orthogonalEdgeStyle;rounded=0;orthogonalLoop=1;jettySize=auto;html=1;" edge="1" parent="1" source="Fw9hPNQKj0aXbpjn_FU2-70" target="Fw9hPNQKj0aXbpjn_FU2-72">
          <mxGeometry relative="1" as="geometry">
            <Array as="points">
              <mxPoint x="260" y="1230" />
              <mxPoint x="260" y="1430" />
            </Array>
          </mxGeometry>
        </mxCell>
        <mxCell id="Fw9hPNQKj0aXbpjn_FU2-77" value="" style="edgeStyle=orthogonalEdgeStyle;rounded=0;orthogonalLoop=1;jettySize=auto;html=1;entryX=1;entryY=0.5;entryDx=0;entryDy=0;" edge="1" parent="1" source="Fw9hPNQKj0aXbpjn_FU2-70" target="Fw9hPNQKj0aXbpjn_FU2-78">
          <mxGeometry relative="1" as="geometry">
            <mxPoint x="274.94117647058806" y="1169" as="targetPoint" />
            <Array as="points">
              <mxPoint x="360" y="1135" />
            </Array>
          </mxGeometry>
        </mxCell>
        <mxCell id="Fw9hPNQKj0aXbpjn_FU2-70" value="WAIT_MS(500)" style="rounded=0;whiteSpace=wrap;html=1;" vertex="1" parent="1">
          <mxGeometry x="300" y="1200" width="120" height="60" as="geometry" />
        </mxCell>
        <mxCell id="Fw9hPNQKj0aXbpjn_FU2-72" value="" style="shape=waypoint;sketch=0;size=6;pointerEvents=1;points=[];fillColor=default;resizable=0;rotatable=0;perimeter=centerPerimeter;snapToPoint=1;rounded=0;" vertex="1" parent="1">
          <mxGeometry x="270" y="1410" width="40" height="40" as="geometry" />
        </mxCell>
        <mxCell id="Fw9hPNQKj0aXbpjn_FU2-83" value="" style="edgeStyle=orthogonalEdgeStyle;rounded=0;orthogonalLoop=1;jettySize=auto;html=1;" edge="1" parent="1" source="Fw9hPNQKj0aXbpjn_FU2-78">
          <mxGeometry relative="1" as="geometry">
            <mxPoint x="140" y="1250" as="targetPoint" />
          </mxGeometry>
        </mxCell>
        <mxCell id="Fw9hPNQKj0aXbpjn_FU2-78" value="DESDE &quot;A&quot; = 0&amp;nbsp;&lt;br&gt;HASTA = 8&lt;br&gt;INCREMENTO = 1" style="shape=hexagon;perimeter=hexagonPerimeter2;whiteSpace=wrap;html=1;fixedSize=1;" vertex="1" parent="1">
          <mxGeometry x="70" y="1090" width="140" height="90" as="geometry" />
        </mxCell>
        <mxCell id="Fw9hPNQKj0aXbpjn_FU2-86" value="" style="edgeStyle=orthogonalEdgeStyle;rounded=0;orthogonalLoop=1;jettySize=auto;html=1;" edge="1" parent="1" source="Fw9hPNQKj0aXbpjn_FU2-79">
          <mxGeometry relative="1" as="geometry">
            <mxPoint x="140" y="1475" as="targetPoint" />
          </mxGeometry>
        </mxCell>
        <mxCell id="Fw9hPNQKj0aXbpjn_FU2-79" value="ROJO_PUTVAL(0)" style="rounded=0;whiteSpace=wrap;html=1;" vertex="1" parent="1">
          <mxGeometry x="80" y="1350" width="120" height="60" as="geometry" />
        </mxCell>
        <mxCell id="Fw9hPNQKj0aXbpjn_FU2-84" value="" style="edgeStyle=orthogonalEdgeStyle;rounded=0;orthogonalLoop=1;jettySize=auto;html=1;" edge="1" parent="1" target="Fw9hPNQKj0aXbpjn_FU2-79">
          <mxGeometry relative="1" as="geometry">
            <mxPoint x="140" y="1310" as="sourcePoint" />
          </mxGeometry>
        </mxCell>
        <mxCell id="Fw9hPNQKj0aXbpjn_FU2-88" value="" style="edgeStyle=orthogonalEdgeStyle;rounded=0;orthogonalLoop=1;jettySize=auto;html=1;" edge="1" parent="1" target="Fw9hPNQKj0aXbpjn_FU2-87">
          <mxGeometry relative="1" as="geometry">
            <mxPoint x="140" y="1535" as="sourcePoint" />
          </mxGeometry>
        </mxCell>
        <mxCell id="Fw9hPNQKj0aXbpjn_FU2-91" value="" style="edgeStyle=orthogonalEdgeStyle;rounded=0;orthogonalLoop=1;jettySize=auto;html=1;" edge="1" parent="1" source="Fw9hPNQKj0aXbpjn_FU2-87" target="Fw9hPNQKj0aXbpjn_FU2-90">
          <mxGeometry relative="1" as="geometry">
            <Array as="points">
              <mxPoint x="40" y="1640" />
              <mxPoint x="40" y="1135" />
            </Array>
          </mxGeometry>
        </mxCell>
        <mxCell id="Fw9hPNQKj0aXbpjn_FU2-94" value="" style="edgeStyle=orthogonalEdgeStyle;rounded=0;orthogonalLoop=1;jettySize=auto;html=1;fontSize=24;" edge="1" parent="1" source="Fw9hPNQKj0aXbpjn_FU2-87" target="Fw9hPNQKj0aXbpjn_FU2-93">
          <mxGeometry relative="1" as="geometry" />
        </mxCell>
        <mxCell id="Fw9hPNQKj0aXbpjn_FU2-87" value="ROJO_PUTVAL(1)" style="rounded=0;whiteSpace=wrap;html=1;" vertex="1" parent="1">
          <mxGeometry x="80" y="1610" width="120" height="60" as="geometry" />
        </mxCell>
        <mxCell id="Fw9hPNQKj0aXbpjn_FU2-90" value="" style="shape=waypoint;sketch=0;size=6;pointerEvents=1;points=[];fillColor=default;resizable=0;rotatable=0;perimeter=centerPerimeter;snapToPoint=1;rounded=0;" vertex="1" parent="1">
          <mxGeometry x="50" y="1115" width="40" height="40" as="geometry" />
        </mxCell>
        <mxCell id="Fw9hPNQKj0aXbpjn_FU2-92" value="&lt;font style=&quot;font-size: 24px;&quot;&gt;FIN&lt;/font&gt;" style="rounded=1;whiteSpace=wrap;html=1;" vertex="1" parent="1">
          <mxGeometry x="460" y="1605" width="140" height="70" as="geometry" />
        </mxCell>
        <mxCell id="Fw9hPNQKj0aXbpjn_FU2-93" value="" style="shape=waypoint;sketch=0;size=6;pointerEvents=1;points=[];fillColor=default;resizable=0;rotatable=0;perimeter=centerPerimeter;snapToPoint=1;rounded=0;" vertex="1" parent="1">
          <mxGeometry x="435" y="1620" width="40" height="40" as="geometry" />
        </mxCell>
        <mxCell id="Fw9hPNQKj0aXbpjn_FU2-95" value="WAIT_MS(500)" style="rounded=0;whiteSpace=wrap;html=1;" vertex="1" parent="1">
          <mxGeometry x="80" y="1480" width="120" height="60" as="geometry" />
        </mxCell>
        <mxCell id="Fw9hPNQKj0aXbpjn_FU2-96" value="WAIT_MS(500)" style="rounded=0;whiteSpace=wrap;html=1;" vertex="1" parent="1">
          <mxGeometry x="80" y="1250" width="120" height="60" as="geometry" />
        </mxCell>
      </root>
    </mxGraphModel>
  </diagram>
</mxfile>
